<svg xmlns="http://www.w3.org/2000/svg" xmlns:xlink="http://www.w3.org/1999/xlink" viewBox="0 0 416.31 383.06"><defs><style>.cls-1,.cls-92{fill:none;}.cls-2{isolation:isolate;}.cls-3{clip-path:url(#clip-path);}.cls-4{fill:#e0f3ff;}.cls-5{fill:url(#_ÂÁ_Ï_ÌÌ_È_ËÂÌÚ_29);}.cls-6{fill:url(#_ÂÁ_Ï_ÌÌ_È_ËÂÌÚ_28);}.cls-7{fill:#e5e2ff;}.cls-8{fill:url(#_ÂÁ_Ï_ÌÌ_È_ËÂÌÚ_28-2);}.cls-10,.cls-9{opacity:0.62;}.cls-10,.cls-15,.cls-21,.cls-24,.cls-26,.cls-29,.cls-30,.cls-31,.cls-32,.cls-33,.cls-34,.cls-35,.cls-36,.cls-37,.cls-38,.cls-39,.cls-40,.cls-41,.cls-42,.cls-43,.cls-44,.cls-45,.cls-46,.cls-47,.cls-48,.cls-49,.cls-53,.cls-63,.cls-66,.cls-67,.cls-68,.cls-72,.cls-73,.cls-82,.cls-9{mix-blend-mode:multiply;}.cls-9{fill:url(#_ÂÁ_Ï_ÌÌ_È_ËÂÌÚ_27);}.cls-10{fill:url(#_ÂÁ_Ï_ÌÌ_È_ËÂÌÚ_94);}.cls-11,.cls-14,.cls-30,.cls-31,.cls-32,.cls-33,.cls-34,.cls-35,.cls-36,.cls-37,.cls-39,.cls-40,.cls-41,.cls-42,.cls-43,.cls-44,.cls-46,.cls-47,.cls-48,.cls-49,.cls-68,.cls-82{opacity:0.5;}.cls-11,.cls-14{mix-blend-mode:screen;}.cls-11{fill:url(#_ÂÁ_Ï_ÌÌ_È_ËÂÌÚ_95);}.cls-12{fill:#fff;}.cls-13,.cls-14,.cls-15{fill:#231f20;}.cls-15,.cls-38{opacity:0.76;}.cls-16{fill:#fe9083;}.cls-17{fill:#1bc0ed;}.cls-18{fill:#cb4d7a;}.cls-19{fill:#ee8183;}.cls-20{fill:url(#_ÂÁ_Ï_ÌÌ_È_ËÂÌÚ_71);}.cls-21,.cls-26,.cls-53,.cls-63,.cls-66,.cls-67{opacity:0.6;}.cls-21{fill:url(#_ÂÁ_Ï_ÌÌ_È_ËÂÌÚ_48);}.cls-22{fill:url(#_ÂÁ_Ï_ÌÌ_È_ËÂÌÚ_71-2);}.cls-23{fill:#e28183;}.cls-24,.cls-29{opacity:0.91;}.cls-24{fill:url(#_ÂÁ_Ï_ÌÌ_È_ËÂÌÚ_73);}.cls-25{fill:url(#_ÂÁ_Ï_ÌÌ_È_ËÂÌÚ_71-3);}.cls-26{fill:url(#_ÂÁ_Ï_ÌÌ_È_ËÂÌÚ_48-2);}.cls-27{fill:url(#_ÂÁ_Ï_ÌÌ_È_ËÂÌÚ_64);}.cls-28{fill:url(#_ÂÁ_Ï_ÌÌ_È_ËÂÌÚ_64-2);}.cls-29{fill:url(#_ÂÁ_Ï_ÌÌ_È_ËÂÌÚ_73-2);}.cls-30{fill:url(#_ÂÁ_Ï_ÌÌ_È_ËÂÌÚ_70);}.cls-31{fill:url(#_ÂÁ_Ï_ÌÌ_È_ËÂÌÚ_4);}.cls-32{fill:url(#_ÂÁ_Ï_ÌÌ_È_ËÂÌÚ_4-2);}.cls-33{fill:url(#_ÂÁ_Ï_ÌÌ_È_ËÂÌÚ_4-3);}.cls-34{fill:url(#_ÂÁ_Ï_ÌÌ_È_ËÂÌÚ_4-4);}.cls-35{fill:url(#_ÂÁ_Ï_ÌÌ_È_ËÂÌÚ_4-5);}.cls-36{fill:url(#_ÂÁ_Ï_ÌÌ_È_ËÂÌÚ_4-6);}.cls-37{fill:url(#_ÂÁ_Ï_ÌÌ_È_ËÂÌÚ_4-7);}.cls-38{fill:url(#_ÂÁ_Ï_ÌÌ_È_ËÂÌÚ_70-2);}.cls-39{fill:url(#_ÂÁ_Ï_ÌÌ_È_ËÂÌÚ_70-3);}.cls-40{fill:url(#_ÂÁ_Ï_ÌÌ_È_ËÂÌÚ_4-8);}.cls-41{fill:url(#_ÂÁ_Ï_ÌÌ_È_ËÂÌÚ_70-4);}.cls-42{fill:url(#_ÂÁ_Ï_ÌÌ_È_ËÂÌÚ_4-9);}.cls-43{fill:url(#_ÂÁ_Ï_ÌÌ_È_ËÂÌÚ_4-10);}.cls-44{fill:url(#_ÂÁ_Ï_ÌÌ_È_ËÂÌÚ_70-5);}.cls-45{opacity:0.3;fill:url(#_ÂÁ_Ï_ÌÌ_È_ËÂÌÚ_70-6);}.cls-46{fill:url(#_ÂÁ_Ï_ÌÌ_È_ËÂÌÚ_70-7);}.cls-47{fill:url(#_ÂÁ_Ï_ÌÌ_È_ËÂÌÚ_70-8);}.cls-48{fill:url(#_ÂÁ_Ï_ÌÌ_È_ËÂÌÚ_70-9);}.cls-49{fill:#7a4ac0;}.cls-50{fill:url(#_ÂÁ_Ï_ÌÌ_È_ËÂÌÚ_71-4);}.cls-51{fill:url(#_ÂÁ_Ï_ÌÌ_È_ËÂÌÚ_71-5);}.cls-52{fill:url(#_ÂÁ_Ï_ÌÌ_È_ËÂÌÚ_387);}.cls-53{fill:url(#_ÂÁ_Ï_ÌÌ_È_ËÂÌÚ_48-3);}.cls-54{fill:url(#_ÂÁ_Ï_ÌÌ_È_ËÂÌÚ_59);}.cls-55{fill:url(#_ÂÁ_Ï_ÌÌ_È_ËÂÌÚ_184);}.cls-56{fill:#ffebed;}.cls-57{fill:#70585e;}.cls-58{fill:#131163;}.cls-59{fill:#c6659c;}.cls-60{fill:#cb5f7d;}.cls-61{fill:#9f4a8b;}.cls-62{fill:#ffbcaf;}.cls-63{fill:url(#_ÂÁ_Ï_ÌÌ_È_ËÂÌÚ_48-4);}.cls-64{fill:url(#linear-gradient);}.cls-65{fill:#d2726c;}.cls-66{fill:url(#_ÂÁ_Ï_ÌÌ_È_ËÂÌÚ_35);}.cls-67{fill:url(#linear-gradient-2);}.cls-68{fill:url(#_ÂÁ_Ï_ÌÌ_È_ËÂÌÚ_397);}.cls-69{fill:url(#linear-gradient-3);}.cls-70{fill:url(#linear-gradient-4);}.cls-71{fill:url(#linear-gradient-5);}.cls-72,.cls-73{opacity:0.8;}.cls-72{fill:url(#_ÂÁ_Ï_ÌÌ_È_ËÂÌÚ_285);}.cls-73{fill:url(#_ÂÁ_Ï_ÌÌ_È_ËÂÌÚ_285-2);}.cls-74{fill:#34c7ff;}.cls-75{opacity:0.81;fill:url(#_ÂÁ_Ï_ÌÌ_È_ËÂÌÚ_115);}.cls-76{fill:#473da2;}.cls-77{opacity:0.73;fill:url(#_ÂÁ_Ï_ÌÌ_È_ËÂÌÚ_97);}.cls-78{fill:#953da2;}.cls-79,.cls-80,.cls-81,.cls-82,.cls-83,.cls-87,.cls-88,.cls-89,.cls-90{fill-rule:evenodd;}.cls-79{fill:url(#_ÂÁ_Ï_ÌÌ_È_ËÂÌÚ_206);}.cls-80{fill:url(#_ÂÁ_Ï_ÌÌ_È_ËÂÌÚ_206-2);}.cls-81{fill:url(#_ÂÁ_Ï_ÌÌ_È_ËÂÌÚ_107);}.cls-82{fill:#601734;}.cls-83{fill:#b3d9ff;mix-blend-mode:soft-light;}.cls-84{fill:#ff1d9c;}.cls-85{fill:#6877ff;}.cls-86{fill:#4f31e0;}.cls-87{fill:url(#_ÂÁ_Ï_ÌÌ_È_ËÂÌÚ_107-2);}.cls-88{fill:url(#_ÂÁ_Ï_ÌÌ_È_ËÂÌÚ_206-3);}.cls-89{fill:url(#_ÂÁ_Ï_ÌÌ_È_ËÂÌÚ_107-3);}.cls-90{fill:url(#_ÂÁ_Ï_ÌÌ_È_ËÂÌÚ_206-4);}.cls-91{fill:#744ca2;}.cls-92{stroke:#1bc0ed;stroke-miterlimit:10;}</style><clipPath id="clip-path" transform="translate(-40.5 -32.6)"><rect class="cls-1" x="-7.42" y="2.44" width="600" height="400"/></clipPath><linearGradient id="_ÂÁ_Ï_ÌÌ_È_ËÂÌÚ_29" x1="132.08" y1="274.27" x2="132.08" y2="203.08" gradientTransform="matrix(0.91, -0.42, 0.42, 0.91, -75.05, 53.74)" gradientUnits="userSpaceOnUse"><stop offset="0" stop-color="#dbccff"/><stop offset="1" stop-color="#d1bbff"/></linearGradient><linearGradient id="_ÂÁ_Ï_ÌÌ_È_ËÂÌÚ_28" x1="132.08" y1="277.05" x2="132.08" y2="205.86" gradientTransform="matrix(0.91, -0.42, 0.42, 0.91, -75.05, 53.74)" gradientUnits="userSpaceOnUse"><stop offset="0" stop-color="#b5a6e7"/><stop offset="1" stop-color="#7760bf"/></linearGradient><linearGradient id="_ÂÁ_Ï_ÌÌ_È_ËÂÌÚ_28-2" x1="132.08" y1="259.35" x2="132.08" y2="229.34" xlink:href="#_ÂÁ_Ï_ÌÌ_È_ËÂÌÚ_28"/><linearGradient id="_ÂÁ_Ï_ÌÌ_È_ËÂÌÚ_27" x1="127.82" y1="229.94" x2="136.34" y2="229.94" gradientTransform="matrix(0.91, -0.42, 0.42, 0.91, -75.05, 53.74)" gradientUnits="userSpaceOnUse"><stop offset="0" stop-color="#8b8be0"/><stop offset="1" stop-color="#a177b7"/></linearGradient><linearGradient id="_ÂÁ_Ï_ÌÌ_È_ËÂÌÚ_94" x1="132.08" y1="231.92" x2="132.08" y2="226.76" gradientTransform="matrix(0.91, -0.42, 0.42, 0.91, -75.05, 53.74)" gradientUnits="userSpaceOnUse"><stop offset="0" stop-color="#fff"/><stop offset="1" stop-color="#a177b7"/></linearGradient><linearGradient id="_ÂÁ_Ï_ÌÌ_È_ËÂÌÚ_95" x1="136.58" y1="262.41" x2="136.58" y2="229.33" gradientTransform="matrix(0.91, -0.42, 0.42, 0.91, -75.05, 53.74)" gradientUnits="userSpaceOnUse"><stop offset="0"/><stop offset="1" stop-color="#fff"/></linearGradient><linearGradient id="_ÂÁ_Ï_ÌÌ_È_ËÂÌÚ_71" x1="171.5" y1="164.26" x2="171.5" y2="142.13" gradientUnits="userSpaceOnUse"><stop offset="0.02" stop-color="#ffc2a9"/><stop offset="1" stop-color="#ff9595"/></linearGradient><linearGradient id="_ÂÁ_Ï_ÌÌ_È_ËÂÌÚ_48" x1="185.43" y1="163.73" x2="185.43" y2="127.11" gradientUnits="userSpaceOnUse"><stop offset="0" stop-color="#ffeadb"/><stop offset="0.99" stop-color="#c27cb6"/></linearGradient><linearGradient id="_ÂÁ_Ï_ÌÌ_È_ËÂÌÚ_71-2" x1="184.25" y1="188.65" x2="184.25" y2="132.19" xlink:href="#_ÂÁ_Ï_ÌÌ_È_ËÂÌÚ_71"/><linearGradient id="_ÂÁ_Ï_ÌÌ_È_ËÂÌÚ_73" x1="174.15" y1="179.84" x2="191.9" y2="179.84" gradientUnits="userSpaceOnUse"><stop offset="0.02" stop-color="#d1a1d6"/><stop offset="0.99" stop-color="#bd89c4"/></linearGradient><linearGradient id="_ÂÁ_Ï_ÌÌ_È_ËÂÌÚ_71-3" x1="391.57" y1="223.04" x2="391.57" y2="147.54" xlink:href="#_ÂÁ_Ï_ÌÌ_È_ËÂÌÚ_71"/><linearGradient id="_ÂÁ_Ï_ÌÌ_È_ËÂÌÚ_48-2" x1="400.49" y1="198.85" x2="400.49" y2="161.34" xlink:href="#_ÂÁ_Ï_ÌÌ_È_ËÂÌÚ_48"/><linearGradient id="_ÂÁ_Ï_ÌÌ_È_ËÂÌÚ_64" x1="407.89" y1="185.9" x2="407.89" y2="169.09" gradientUnits="userSpaceOnUse"><stop offset="0" stop-color="#ffb0b0"/><stop offset="0.98" stop-color="#ffc2a9"/></linearGradient><linearGradient id="_ÂÁ_Ï_ÌÌ_È_ËÂÌÚ_64-2" x1="417.65" y1="188.49" x2="417.65" y2="179.27" xlink:href="#_ÂÁ_Ï_ÌÌ_È_ËÂÌÚ_64"/><linearGradient id="_ÂÁ_Ï_ÌÌ_È_ËÂÌÚ_73-2" x1="378.21" y1="206.87" x2="395.36" y2="206.87" xlink:href="#_ÂÁ_Ï_ÌÌ_È_ËÂÌÚ_73"/><linearGradient id="_ÂÁ_Ï_ÌÌ_È_ËÂÌÚ_70" x1="168.27" y1="249.03" x2="309.62" y2="249.03" gradientUnits="userSpaceOnUse"><stop offset="0" stop-color="#ccf"/><stop offset="1" stop-color="#755cbb"/></linearGradient><linearGradient id="_ÂÁ_Ï_ÌÌ_È_ËÂÌÚ_4" x1="292.88" y1="225.38" x2="319.9" y2="225.38" gradientUnits="userSpaceOnUse"><stop offset="0" stop-color="#ccedff"/><stop offset="1" stop-color="#755cbb"/></linearGradient><linearGradient id="_ÂÁ_Ï_ÌÌ_È_ËÂÌÚ_4-2" x1="268.38" y1="272.8" x2="308.08" y2="272.8" xlink:href="#_ÂÁ_Ï_ÌÌ_È_ËÂÌÚ_4"/><linearGradient id="_ÂÁ_Ï_ÌÌ_È_ËÂÌÚ_4-3" x1="270.22" y1="290.75" x2="312.64" y2="290.75" xlink:href="#_ÂÁ_Ï_ÌÌ_È_ËÂÌÚ_4"/><linearGradient id="_ÂÁ_Ï_ÌÌ_È_ËÂÌÚ_4-4" x1="233.71" y1="246.3" x2="233.71" y2="198.69" xlink:href="#_ÂÁ_Ï_ÌÌ_È_ËÂÌÚ_4"/><linearGradient id="_ÂÁ_Ï_ÌÌ_È_ËÂÌÚ_4-5" x1="237.54" y1="250.3" x2="237.54" y2="214.21" xlink:href="#_ÂÁ_Ï_ÌÌ_È_ËÂÌÚ_4"/><linearGradient id="_ÂÁ_Ï_ÌÌ_È_ËÂÌÚ_4-6" x1="180.5" y1="204.17" x2="180.5" y2="176.9" xlink:href="#_ÂÁ_Ï_ÌÌ_È_ËÂÌÚ_4"/><linearGradient id="_ÂÁ_Ï_ÌÌ_È_ËÂÌÚ_4-7" x1="202.57" y1="180.15" x2="213.56" y2="180.15" xlink:href="#_ÂÁ_Ï_ÌÌ_È_ËÂÌÚ_4"/><linearGradient id="_ÂÁ_Ï_ÌÌ_È_ËÂÌÚ_70-2" x1="322.03" y1="246.3" x2="322.03" y2="195.76" xlink:href="#_ÂÁ_Ï_ÌÌ_È_ËÂÌÚ_70"/><linearGradient id="_ÂÁ_Ï_ÌÌ_È_ËÂÌÚ_70-3" x1="378.85" y1="235.43" x2="378.85" y2="209.02" xlink:href="#_ÂÁ_Ï_ÌÌ_È_ËÂÌÚ_70"/><linearGradient id="_ÂÁ_Ï_ÌÌ_È_ËÂÌÚ_4-8" x1="174.8" y1="205.91" x2="174.8" y2="198.41" xlink:href="#_ÂÁ_Ï_ÌÌ_È_ËÂÌÚ_4"/><linearGradient id="_ÂÁ_Ï_ÌÌ_È_ËÂÌÚ_70-4" x1="194.82" y1="228.77" x2="194.82" y2="187.79" xlink:href="#_ÂÁ_Ï_ÌÌ_È_ËÂÌÚ_70"/><linearGradient id="_ÂÁ_Ï_ÌÌ_È_ËÂÌÚ_4-9" x1="300.25" y1="199.92" x2="300.25" y2="169.09" xlink:href="#_ÂÁ_Ï_ÌÌ_È_ËÂÌÚ_4"/><linearGradient id="_ÂÁ_Ï_ÌÌ_È_ËÂÌÚ_4-10" x1="259.85" y1="195.75" x2="259.85" y2="153.19" xlink:href="#_ÂÁ_Ï_ÌÌ_È_ËÂÌÚ_4"/><linearGradient id="_ÂÁ_Ï_ÌÌ_È_ËÂÌÚ_70-5" x1="251.61" y1="162.52" x2="297.87" y2="162.52" xlink:href="#_ÂÁ_Ï_ÌÌ_È_ËÂÌÚ_70"/><linearGradient id="_ÂÁ_Ï_ÌÌ_È_ËÂÌÚ_70-6" x1="370.53" y1="232.42" x2="370.53" y2="205.65" xlink:href="#_ÂÁ_Ï_ÌÌ_È_ËÂÌÚ_70"/><linearGradient id="_ÂÁ_Ï_ÌÌ_È_ËÂÌÚ_70-7" x1="332.69" y1="262.62" x2="332.69" y2="181.55" xlink:href="#_ÂÁ_Ï_ÌÌ_È_ËÂÌÚ_70"/><linearGradient id="_ÂÁ_Ï_ÌÌ_È_ËÂÌÚ_70-8" x1="245.53" y1="300.7" x2="245.53" y2="277.46" xlink:href="#_ÂÁ_Ï_ÌÌ_È_ËÂÌÚ_70"/><linearGradient id="_ÂÁ_Ï_ÌÌ_È_ËÂÌÚ_70-9" x1="290.67" y1="294.31" x2="290.67" y2="283.03" xlink:href="#_ÂÁ_Ï_ÌÌ_È_ËÂÌÚ_70"/><linearGradient id="_ÂÁ_Ï_ÌÌ_È_ËÂÌÚ_71-4" x1="290.18" y1="149.25" x2="290.18" y2="72.04" xlink:href="#_ÂÁ_Ï_ÌÌ_È_ËÂÌÚ_71"/><linearGradient id="_ÂÁ_Ï_ÌÌ_È_ËÂÌÚ_71-5" x1="261.39" y1="118.1" x2="261.39" y2="95.33" xlink:href="#_ÂÁ_Ï_ÌÌ_È_ËÂÌÚ_71"/><linearGradient id="_ÂÁ_Ï_ÌÌ_È_ËÂÌÚ_387" x1="300.91" y1="126.7" x2="301.86" y2="121.73" gradientUnits="userSpaceOnUse"><stop offset="0" stop-color="#e1616a"/><stop offset="1" stop-color="#ff8883"/></linearGradient><linearGradient id="_ÂÁ_Ï_ÌÌ_È_ËÂÌÚ_48-3" x1="292.29" y1="122.9" x2="292.29" y2="73.16" xlink:href="#_ÂÁ_Ï_ÌÌ_È_ËÂÌÚ_48"/><linearGradient id="_ÂÁ_Ï_ÌÌ_È_ËÂÌÚ_59" x1="289.87" y1="102.53" x2="289.87" y2="92.68" gradientUnits="userSpaceOnUse"><stop offset="0" stop-color="#cf6074"/><stop offset="1" stop-color="#f37270"/></linearGradient><linearGradient id="_ÂÁ_Ï_ÌÌ_È_ËÂÌÚ_184" x1="309.52" y1="105.66" x2="309.52" y2="97.09" gradientUnits="userSpaceOnUse"><stop offset="0" stop-color="#cf6074"/><stop offset="1" stop-color="#ff817f"/></linearGradient><linearGradient id="_ÂÁ_Ï_ÌÌ_È_ËÂÌÚ_48-4" x1="310.33" y1="110.65" x2="310.33" y2="91.36" xlink:href="#_ÂÁ_Ï_ÌÌ_È_ËÂÌÚ_48"/><linearGradient id="linear-gradient" x1="291.21" y1="150.22" x2="291.21" y2="56.59" gradientUnits="userSpaceOnUse"><stop offset="0" stop-color="#2e33a0"/><stop offset="1" stop-color="#231f20"/></linearGradient><linearGradient id="_ÂÁ_Ï_ÌÌ_È_ËÂÌÚ_35" x1="315.81" y1="91.26" x2="315.81" y2="69.66" gradientUnits="userSpaceOnUse"><stop offset="0" stop-color="#ffeadb"/><stop offset="0.99" stop-color="#8860c7"/></linearGradient><linearGradient id="linear-gradient-2" x1="286.37" y1="150.22" x2="286.37" y2="56.59" gradientUnits="userSpaceOnUse"><stop offset="0" stop-color="#ccc2db"/><stop offset="0.99" stop-color="#231f20"/></linearGradient><linearGradient id="_ÂÁ_Ï_ÌÌ_È_ËÂÌÚ_397" x1="292.65" y1="150.2" x2="292.65" y2="146.18" gradientUnits="userSpaceOnUse"><stop offset="0" stop-color="#776d7e"/><stop offset="1" stop-color="#9d68c2"/></linearGradient><linearGradient id="linear-gradient-3" x1="304.45" y1="63.31" x2="304.45" y2="60.32" gradientUnits="userSpaceOnUse"><stop offset="0" stop-color="#1f77d1"/><stop offset="1" stop-color="#231f20"/></linearGradient><linearGradient id="linear-gradient-4" x1="285.41" y1="73.15" x2="285.41" y2="64.31" xlink:href="#linear-gradient-3"/><linearGradient id="linear-gradient-5" x1="317.43" y1="77.63" x2="317.43" y2="69.66" xlink:href="#linear-gradient-3"/><linearGradient id="_ÂÁ_Ï_ÌÌ_È_ËÂÌÚ_285" x1="264.71" y1="112.7" x2="254.51" y2="100.21" gradientUnits="userSpaceOnUse"><stop offset="0" stop-color="#ffeadb"/><stop offset="0.99" stop-color="#b060f4"/></linearGradient><linearGradient id="_ÂÁ_Ï_ÌÌ_È_ËÂÌÚ_285-2" x1="265.78" y1="111.09" x2="260.76" y2="104.95" xlink:href="#_ÂÁ_Ï_ÌÌ_È_ËÂÌÚ_285"/><linearGradient id="_ÂÁ_Ï_ÌÌ_È_ËÂÌÚ_115" x1="163.31" y1="133.19" x2="176.62" y2="27.17" gradientUnits="userSpaceOnUse"><stop offset="0" stop-color="#067eff"/><stop offset="1" stop-color="#3e37a0"/></linearGradient><linearGradient id="_ÂÁ_Ï_ÌÌ_È_ËÂÌÚ_97" x1="423.85" y1="155.07" x2="423.85" y2="108.4" gradientUnits="userSpaceOnUse"><stop offset="0" stop-color="#d906e3"/><stop offset="1" stop-color="#ff6df9"/></linearGradient><linearGradient id="_ÂÁ_Ï_ÌÌ_È_ËÂÌÚ_206" x1="397.79" y1="279.49" x2="392.81" y2="236.8" gradientTransform="matrix(0.97, 0.26, -0.26, 0.97, 63.63, -54.68)" gradientUnits="userSpaceOnUse"><stop offset="0" stop-color="#1852a0"/><stop offset="1" stop-color="#067ed3"/></linearGradient><linearGradient id="_ÂÁ_Ï_ÌÌ_È_ËÂÌÚ_206-2" x1="392.97" y1="279.65" x2="392.97" y2="235.91" xlink:href="#_ÂÁ_Ï_ÌÌ_È_ËÂÌÚ_206"/><linearGradient id="_ÂÁ_Ï_ÌÌ_È_ËÂÌÚ_107" x1="355.74" y1="292.29" x2="352.52" y2="264.68" gradientTransform="matrix(0.94, 0.33, -0.52, 1.49, 181.34, -235.91)" gradientUnits="userSpaceOnUse"><stop offset="0" stop-color="#188dc1"/><stop offset="1" stop-color="#06bfe7"/></linearGradient><linearGradient id="_ÂÁ_Ï_ÌÌ_È_ËÂÌÚ_107-2" x1="364.43" y1="57.93" x2="375.76" y2="15.85" gradientTransform="matrix(1, 0, 0, 1, 0, 0)" xlink:href="#_ÂÁ_Ï_ÌÌ_È_ËÂÌÚ_107"/><linearGradient id="_ÂÁ_Ï_ÌÌ_È_ËÂÌÚ_206-3" x1="344.95" y1="53.08" x2="353.4" y2="21.7" gradientTransform="matrix(1, 0, 0, 1, 0, 0)" xlink:href="#_ÂÁ_Ï_ÌÌ_È_ËÂÌÚ_206"/><linearGradient id="_ÂÁ_Ï_ÌÌ_È_ËÂÌÚ_107-3" x1="146.72" y1="154.09" x2="154.45" y2="125.4" gradientTransform="matrix(-1, 0, 0, 1, 166.16, -32.6)" xlink:href="#_ÂÁ_Ï_ÌÌ_È_ËÂÌÚ_107"/><linearGradient id="_ÂÁ_Ï_ÌÌ_È_ËÂÌÚ_206-4" x1="133.44" y1="150.78" x2="139.2" y2="129.39" gradientTransform="matrix(-1, 0, 0, 1, 166.16, -32.6)" xlink:href="#_ÂÁ_Ï_ÌÌ_È_ËÂÌÚ_206"/></defs><g class="cls-2"><g id="illustration"><g class="cls-3"><circle class="cls-4" cx="261.63" cy="197.97" r="155.02" transform="translate(-103.85 210.38) rotate(-45)"/><path class="cls-5" d="M147.68,188.05a23.88,23.88,0,0,0-10.56-9.27l-2.35,1.1,5.3,9.61a10.33,10.33,0,0,1-3.24,5.72v0a10.31,10.31,0,0,1-6.47-1.19l-4-10.22-2.35,1.1a23.79,23.79,0,0,0,.34,14s1,2.31,1.17,2.51c.93,1.09,3.36,2.35,8.06,2.06l16.2,30.91a8.48,8.48,0,1,0,8.76-4.09l-13.3-32.25c3.16-3.34,3.83-6,3.59-7.5C148.8,190.24,147.68,188.05,147.68,188.05ZM161,241.36l-4.29,2-3.88-2.71.41-4.72,4.29-2,3.88,2.71Z" transform="translate(-40.5 -32.6)"/><path class="cls-6" d="M148.85,190.56a23.77,23.77,0,0,0-10.55-9.26L136,182.4l5.29,9.6a10.33,10.33,0,0,1-3.24,5.72h0a10.28,10.28,0,0,1-6.46-1.19l-4-10.22-2.35,1.1a23.81,23.81,0,0,0,.33,14s3.67,4.92,9.23,4.57L151,236.91a8.47,8.47,0,1,0,8.76-4.09l-13.31-32.25C150.27,196.53,148.85,190.56,148.85,190.56Zm13.33,53.31-4.29,2L154,243.17l.41-4.72,4.3-2,3.88,2.71Z" transform="translate(-40.5 -32.6)"/><rect class="cls-7" x="124.5" y="184.2" width="2.59" height="2.78" transform="translate(-107.23 38.09) rotate(-25.04)"/><rect class="cls-7" x="135.24" y="179.2" width="2.59" height="2.78" transform="translate(-104.11 42.17) rotate(-25.04)"/><rect class="cls-7" x="157.08" y="242.23" width="4.74" height="2.78" transform="translate(-128.63 57.79) rotate(-25.04)"/><path class="cls-8" d="M138.24,208.3l13.09,25.15a6.38,6.38,0,0,0,5.28-2.47L146,204.69A10.09,10.09,0,0,0,138.24,208.3Zm17.36,22.89a7.37,7.37,0,0,1-1.69,1.1,5.89,5.89,0,0,1-1.81.54L139,208.2a13.22,13.22,0,0,1,3.15-2.07,11,11,0,0,1,3.24-.95Z" transform="translate(-40.5 -32.6)"/><path class="cls-7" d="M155.6,231.19l1-.21a5.66,5.66,0,0,1-5.28,2.47l.77-.62A7.06,7.06,0,0,0,155.6,231.19Z" transform="translate(-40.5 -32.6)"/><path class="cls-9" d="M138.24,208.3l.76-.1a12.16,12.16,0,0,1,6.39-3l.57-.49a9.88,9.88,0,0,0-7.72,3.61Z" transform="translate(-40.5 -32.6)"/><path class="cls-10" d="M134.77,206a28.87,28.87,0,0,0,11.66-5.43l1.7,4.13s-1.93-1.91-6.16-.19c-5,2-4.69,6-4.69,6Z" transform="translate(-40.5 -32.6)"/><path class="cls-11" d="M148.13,204.7a5.08,5.08,0,0,0-2.59-.9l12.67,30.6,1.53-1.58Z" transform="translate(-40.5 -32.6)"/><path class="cls-12" d="M148.13,204.7s-1.33,4.09,2.49,6Z" transform="translate(-40.5 -32.6)"/><path class="cls-13" d="M338.81,402.44h-47c-4.92-27.32-16.36-62.87-16.36-62.87-2.78-1.65-8.21.38-8.21.38l-17.18,62.49H207.12c-2.28-38.56,18.82-82.33,18.82-82.33h0a4.73,4.73,0,0,1-.56-2.39,5.68,5.68,0,0,1,1.6-1.86c1.16-1.06,2.54-2.12,2.54-2.12l80.11-.5s.81.41,1.84,1h0c1.75,1.06,4.12,2.7,4.12,3.9a5.47,5.47,0,0,1-.81,3l0,.05C331.92,353.59,338.81,402.44,338.81,402.44Z" transform="translate(-40.5 -32.6)"/><ellipse class="cls-14" cx="229.44" cy="370.35" rx="46.31" ry="17.92" transform="translate(-223.52 478.06) rotate(-77.01)"/><ellipse class="cls-14" cx="312.64" cy="369.91" rx="17.92" ry="46.31" transform="translate(-128.71 65.48) rotate(-15.65)"/><path class="cls-13" d="M244.5,402.48l-.49-.08c5.46-32.2,19.33-59.21,19.47-59.48l.06-.07,3.53-3.09.33.38-3.49,3.05C263.28,344.41,249.85,371,244.5,402.48Z" transform="translate(-40.5 -32.6)"/><path class="cls-13" d="M298.19,402.48c-5.36-31.55-19.16-58.35-19.78-59.54l-3.13-2.81.34-.37,3.21,2.91c.14.27,14.39,27.53,19.85,59.73Z" transform="translate(-40.5 -32.6)"/><path class="cls-15" d="M315.59,318.16a5.47,5.47,0,0,1-.81,3l0,.05c-16.68,3.77-29.37,19.34-29.37,19.34,9.09,17.44,24.25,61.93,24.25,61.93H291.81c-4.92-27.32-16.36-62.87-16.36-62.87-2.78-1.65-8.21.38-8.21.38l-17.18,62.49H238.94c4-26.18,15.73-58.14,15.73-58.14-11.55-13.45-28.73-24.19-28.73-24.19h0l-2-1.28,1.48-1.11c7.43,7.13,31.39,16.44,32.13,16.73L227,315.85c1.16-1.06,2.54-2.12,2.54-2.12l80.11-.5s.81.41,1.84,1l-21.88,12Z" transform="translate(-40.5 -32.6)"/><polygon class="cls-15" points="234.95 306.97 244.3 300.9 242.08 306.97 240.45 325.23 234.95 306.97"/><polygon class="cls-15" points="226.74 307.35 217 301.84 196.15 292.44 222.7 309.99 224.28 316.28 226.74 307.35"/><path class="cls-16" d="M294,152.09c.06.43.11.66.11.66a57.27,57.27,0,0,1-1.66,5.66,46,46,0,0,1-6.23,12.12,23.85,23.85,0,0,1-2.72,3.18c-14.59-4.58-21.78-18.85-24.54-26a.36.36,0,0,1,0-.11c-.53-1.34-.88-2.42-1.1-3.12h0c-.17-.56-.25-.87-.25-.87l.18-.37,0-.05c.24-.5.48-1,.7-1.5a71.16,71.16,0,0,0,4-11.17c.71-2.62,1.09-4.64,1.27-5.71.09-.55.13-.85.13-.85l6.8,3.59L294.15,140a38.55,38.55,0,0,0-.5,5.94c0,1.25,0,2.37.09,3.32.07,1.16.19,2.08.28,2.68h0A.68.68,0,0,0,294,152.09Z" transform="translate(-40.5 -32.6)"/><path class="cls-12" d="M287.54,175.28a20.1,20.1,0,0,1-4.84,3.54l-.12.07-.14-.08h0c-.51-.31-2.25-1.38-4.59-3.14-6.12-4.61-16.34-13.93-19.26-26.49l0,0a31.14,31.14,0,0,1-.7-4.59h0c0-.41-.06-.82-.07-1.24a64.43,64.43,0,0,0,5.55,9.92c4.14,6.06,10.35,12.67,17.77,12.71,6.42,0,9.71-4.35,11.38-8.4a22.92,22.92,0,0,0,1.35-4.6,0,0,0,0,0,0,0c.07-.36.12-.68.17-.95h0c0-.14,0-.26.05-.37.06-.45.08-.71.08-.71S296.61,166.21,287.54,175.28Z" transform="translate(-40.5 -32.6)"/><path class="cls-17" d="M287.54,175.28a20.1,20.1,0,0,1-4.84,3.54h-.27c-.51-.31-2.25-1.38-4.59-3.14-6.12-4.61-16.34-13.93-19.26-26.49l0,0a31.14,31.14,0,0,1-.7-4.59h0c0-.41-.06-.82-.07-1.24a64.43,64.43,0,0,0,5.55,9.92s4,11.1,12.78,16.6c4.38,2.75,7.7,2.35,10.14.73a15.09,15.09,0,0,0,4.95-6.54,15.38,15.38,0,0,0,1.28-5.58q0-.49,0-.9a22.92,22.92,0,0,0,1.35-4.6,0,0,0,0,0,0,0c.07-.36.12-.68.17-.95h0c0-.14,0-.26.05-.37.06-.45.08-.71.08-.71S296.61,166.21,287.54,175.28Z" transform="translate(-40.5 -32.6)"/><path class="cls-17" d="M343.7,266l-.16.08c-.82.1-3.37-.46-6.71-3.35h0l0,0,0,0c-2.8-2.45-6.16-6.54-9.51-13.24-6.7-13.39-8.62-22.33-8.93-23.89l0-.24-3.91,6.2c-2.65,8-7.67,40.95-7.58,42.37s4.45,8.34,4.36,9.19v0c-.12.86-2.08,2.75-2.64,4.81-.38,1.37,2.28,5.69,4.15,8.92h0a13.13,13.13,0,0,1,1.72,3.58c0,1.51-4.74,8.9-4.74,8.9v4l-.07.07-.22.2-.18.15c-1.8,1.42-9.43,6.07-33.27,7.35-28.25,1.51-47.07-7.58-47.07-7.58l1.42-3.89s-1.32-1.13-1.42-1.7,1-1.9,1-1.9-2.84-1.51-2.84-3.41,5.69-7.76,5.5-12.79-4.55-9.47-5.12-12.31,7.39-9.85,7.39-9.85C228,246,226.63,217,226.63,217l-1.32-1.52s-8.15,18.57-15.54,27.66c-.88,1.08-1.81,2.15-2.77,3.18a81,81,0,0,1-6.36,6.15c-5.12,4.46-9.77,7.39-10.95,7.16-1.9-.38-9.48-15.35-9.13-30.7.16-7.3,4.56-15.47,9.13-22,.49-.7,1-1.39,1.48-2.06a104.89,104.89,0,0,1,7.84-9.45c.58-.62.91-.95.91-.95s-1-3.35-1.75-6.26a1.6,1.6,0,0,0,0-.21.36.36,0,0,0,0-.1.31.31,0,0,0,0-.07c-.42-1.79-.68-3.34-.44-3.72.63-1,4.3-2.15,4.93-2.9s3.28-13.52,5.3-14.91,5.35-2.3,16.72-6.77l1.73-.68c12.75-5.05,25.26-11.18,25.26-11.18l4.8-5.9h2.14l-.7,1.5,0,.05c.34,1.52.73,3,1.17,4.37a.36.36,0,0,0,0,.11c6.6,20.82,23.58,27.53,23.58,27.53,11.8-8.71,11.57-22.54,11.57-22.54v-1.9l2.21.66,1.51,3.6s2.56,4,12.7,8.44a60.32,60.32,0,0,1,5.57,2.85c9.28,5.27,19.6,13.42,20.39,15.15a5.61,5.61,0,0,1,.27.86h0c1.09,4.28,3.33,20.31,5.41,26a13.1,13.1,0,0,0,4.86,6.56h0a7.61,7.61,0,0,0,1.94,1q.24,1.32.45,2.61C353.83,246.06,345.56,264.67,343.7,266Z" transform="translate(-40.5 -32.6)"/><path class="cls-17" d="M234.87,214.21,226.63,217l-1.32-1.52s-8.15,18.57-15.54,27.66c-.88,1.08-1.81,2.15-2.77,3.18a81,81,0,0,1-6.36,6.15l-6.28-27.07-3.19-20.55a104.89,104.89,0,0,1,7.84-9.45c.58-.62.91-.95.91-.95s-1-3.35-1.75-6.26a1.6,1.6,0,0,0,0-.21.36.36,0,0,0,0-.1.31.31,0,0,0,0-.07c-.42-1.79-.68-3.34-.44-3.72.63-1,4.3-2.15,4.93-2.9s3.28-13.52,5.3-14.91c0,0-1.32,12.25,5.69,27.79l3.41,4.8,10,8S230.74,211.9,234.87,214.21Z" transform="translate(-40.5 -32.6)"/><path class="cls-17" d="M211,236.37c-1.77,13.13-21.34,23.24-21.34,23.24-4.36,0-9.23-7.58-13.65-16.93s-4.69-36.21-4.92-37.87-2.7-5-2.85-6.4,4-4.36,4-4.36l0-.07,0-.07c-.43-.92-2.85-6.11-2.68-7.06s4.82-3.31,4.82-3.31l.29,5.11s10.78-2,14.43-10.39l.64-2.56,1.8,1.2v11s.37,1.71.94,1.71,4.77-2.1,5.65-1.81,1.76,6.17,2.94,6.92,4.3,2.94,4.77,4a19,19,0,0,1,.25,4.15,42.4,42.4,0,0,0,.41,6.94C207.12,212.71,212.8,223.23,211,236.37Z" transform="translate(-40.5 -32.6)"/><path class="cls-17" d="M390,225.12c-.88,1.39-5.3,4.3-6.44,5.44s0,4.87,0,4.87A153.35,153.35,0,0,1,343.7,266l-.16.08c-11.66-7.84-10.66-20.75-6.79-31.63A82.1,82.1,0,0,1,347.07,215h0a24.41,24.41,0,0,1,5.92-1.64,3.59,3.59,0,0,1,2.19.68c1.42.88,2.62,2.27,3.78,1.69,1.71-.86,5.53-9.89,8.12-10.14,1.81-.17,4.32,1.67,6,2.72.73.46,1.3.77,1.58.69.95-.25,4.17-4.11,4.43-4.21s1.72,1,1.72,1l-1,1.28a35,35,0,0,0,6.76,15.22L390,217.2S390.91,223.73,390,225.12Z" transform="translate(-40.5 -32.6)"/><path class="cls-18" d="M294.09,151.7c0,.13,0,.26,0,.39a7.73,7.73,0,0,1-.19.8,0,0,0,0,1,0,0c-1.19,4.41-6,8.92-12.07,6.75-6.63-2.37-19.25-29.1-19.25-29.1l1.27-5.71,29.95,24.4.33,2.31Z" transform="translate(-40.5 -32.6)"/><path class="cls-19" d="M194.36,146.81s-1.83-10.11-1-17.56a81,81,0,0,0-.21-15.92,4.11,4.11,0,0,0-3.14,0c-1.33.76-4.42,8.47-3,14.66s.31,21,.31,21H185.2l-4.55-6.26-2.21-.63s-12.72,12-12.54,19.14l1.67,6.35,15.67-.54,10.23-11.68Z" transform="translate(-40.5 -32.6)"/><path class="cls-20" d="M178.44,142.13a81.23,81.23,0,0,0,2.12,14.78,3.54,3.54,0,0,1-3.57,3l-.81-.9s-.56,3.17-3.45,3.41L170,159.66l.71,2.27a3.89,3.89,0,0,1-3.6,2.32s-4.36-3.41-4.64-7.86l4.31-3.65V150l5.11-3.6.1-2A12.08,12.08,0,0,1,178.44,142.13Z" transform="translate(-40.5 -32.6)"/><path class="cls-21" d="M193.53,127.11a7.17,7.17,0,0,1-1.86,2.71,16,16,0,0,1-4.24,1.34L187.28,149H185.2l-4.55-6.26s2.31,3.57,2.45,6.26l-1.8.88-1.56-5.35L179,148.4l.73,4.79a12.58,12.58,0,0,1,7.58-2.41l.73,1.33s-8.82,7.31-10.86,11.62c0,0,4.36-5.54,14.3-11.65l1-2.94,1.26-7S192.5,132,193.53,127.11Z" transform="translate(-40.5 -32.6)"/><path class="cls-22" d="M200.93,158.24c-.82,2.46-9.41,12.69-10.36,14.91a30,30,0,0,0-1.52,5.11c-4.22,9.13-14.43,10.39-14.43,10.39l-.47-8.24s-5.49-3.16-6.42-4.89v0l-.11-.29a68.8,68.8,0,0,1,0-7.58l9.61-3.89c4.17-5.4,14.31-11.65,14.31-11.65l.47-2.83c-7.28-3.58-6.06-14.41-4.83-15.74a5.4,5.4,0,0,1,3.5-1.32S193.29,140.9,195,145,201.75,155.78,200.93,158.24Z" transform="translate(-40.5 -32.6)"/><path class="cls-23" d="M172,144.31s1.07,9.95,4.21,14.69a23.22,23.22,0,0,1-4.31-12.65Z" transform="translate(-40.5 -32.6)"/><path class="cls-23" d="M166.76,150s1,8,6,12.46c0,0-4.37-2.18-6-9.67Z" transform="translate(-40.5 -32.6)"/><path class="cls-24" d="M191.9,171s-10.83,10.52-17.75,9.38l.47,8.24a18.29,18.29,0,0,0,15.06-13A30.89,30.89,0,0,1,191.9,171Z" transform="translate(-40.5 -32.6)"/><path class="cls-25" d="M420.94,185.33s-9.95,18.19-21.6,23.78h-4L386.17,223s-5.94-3.73-6.38-16a11.17,11.17,0,0,0,2.59-4.62s-3.28-2.58-4.17-4.47-1.2-7.58-1.83-9.92-6-7.2-7.2-7.83-6.63-.95-6.63-.95-.76-2,0-2.9,9.22-4.24,13.83-1.08a20.77,20.77,0,0,0,.82,3.67c.51,1.26,4.55,5.74,5.18,5.74s3.35-2.27,4.55-4a178.56,178.56,0,0,0,8.74-19.32.5.5,0,0,1,0-.13c0-.07.05-.14.06-.2a.93.93,0,0,0,0-.13s0,0,0,0c1.14-3.85,7.77-11.24,11.31-13.26a2.09,2.09,0,0,1,2.33,1.51s-2.84,8.09-5.81,12.89c-.5.81-1,1.76-1.6,2.78h0c-2.53,4.65-5.38,10.74-5.79,11.63l-.05.11,1.58.81,4.27-4.05,4.38-4.15,10.05,10.61-1,1.26-3.14,4,1.59.29,3.7-4.09Z" transform="translate(-40.5 -32.6)"/><path class="cls-26" d="M418.61,189.2l-3.18,4.67s-17.45-13.46-21.24-14.6-5.18-.38-5.18-.38l-3.91,5s7.2,6.38,7.83,15c0,0-2.4-10.86-10.55-14.15.63,0,3.35-2.27,4.55-4a178.56,178.56,0,0,0,8.74-19.32,5,5,0,0,0,.16,3.41c.86,1.59,5.92.09,6.22,0h0l-5.8,11.63-.05.11,1.58.81,4.27-4.05-2.14,5L415.5,181l-3.14,4,1.59.29Z" transform="translate(-40.5 -32.6)"/><path class="cls-27" d="M406.44,169.1s3-.44,5,3.48l-.44,1.26s2.95.58,5.81,5.37A16.19,16.19,0,0,1,408,185.9s-2.9-.82-3.41-3.28l.57-1.58-2.28,1.7s-2.71.82-3.91-3.22Z" transform="translate(-40.5 -32.6)"/><path class="cls-28" d="M421.85,184.07a4.69,4.69,0,0,0-2.46-4.8l-6,6.63a3.09,3.09,0,0,0,2.78,2.59S420.27,187.1,421.85,184.07Z" transform="translate(-40.5 -32.6)"/><path class="cls-29" d="M378.21,198a44.46,44.46,0,0,0,17.15,11.14l-4.4,6.66-9.17-11.65.59-1.68S378.71,199.68,378.21,198Z" transform="translate(-40.5 -32.6)"/><path class="cls-23" d="M411,173.84s-2.91,4.8-5.81,7.2l-.57,1.58s5.64-3.81,7.71-8.21A3.54,3.54,0,0,0,411,173.84Z" transform="translate(-40.5 -32.6)"/><path class="cls-17" d="M390,225.12c-.88,1.39-5.3,4.3-6.44,5.44s0,4.87,0,4.87A153.35,153.35,0,0,1,343.7,266l-.16.08c-1.52.19-8.91-1.89-16.3-16.67-6.7-13.39-8.62-22.33-8.93-23.89l0-.24L319.9,223l2.42-27.28,1.7,5.49c6.44-7.77,12.51-19.7,12.51-19.7l.27.86h0c1.09,4.28,3.33,20.31,5.41,26a13.1,13.1,0,0,0,4.86,6.56v0h0c-5.93,5.41-8.87,13.19-10.32,19.38a53.68,53.68,0,0,0-1.42,10s1.27-13.61,6.45-22.87c1.88-3.37,5.3-6.55,7.7-2.94,1.53,2.3,4.07-3.42,5.72-4.58,1.42.88,11.51-7.83,12.67-8.41-7.8,11.71-21,34.4-13.65,30h0c-1.73-11.43,12.26-27.53,13.65-30,1.69,0,10.95-.76,11.23-.84-.44,13.45.69,2.25.69,2.25L384.72,225a40,40,0,0,1-5.62-20.19c.25-.11,1.72,1,1.72,1l-1,1.28a35,35,0,0,0,6.76,15.22L390,217.2S390.91,223.73,390,225.12Z" transform="translate(-40.5 -32.6)"/><path class="cls-30" d="M309.62,309.25v4l-.07.07-.22.2-.18.15c-1.8,1.42-9.43,6.07-33.27,7.35-28.25,1.51-47.07-7.58-47.07-7.58l1.42-3.89s-1.32-1.13-1.42-1.7,1-1.9,1-1.9-2.84-1.51-2.84-3.41c0-1.71,4.64-6.66,5.39-11.31a6.76,6.76,0,0,0,.11-1.48c-.19-5-4.51-9.43-5.11-12.27v0c-.57-2.84,7.39-9.85,7.39-9.85C228,246,226.63,217,226.63,217l-1.32-1.52s-8.15,18.57-15.54,27.66S191.58,260,189.69,259.61c-4.36,0-9.23-7.58-13.65-16.93s-4.69-36.21-4.92-37.87-2.7-5-2.85-6.4c4.74,8.15,12.29,5.75,12.29,5.75-5.47.12-8.31-10.11-8.31-10.11l0-.07,0-.07-2.67-7c.3.34,6.55,7.33,12.59,3s9.38-13,9.38-13v11s.37,1.71.94,1.71a134.15,134.15,0,0,1-2.74,17.29C186.88,220,183,232.7,183,232.7s10.44-5.68,14.11-20.08A60.74,60.74,0,0,0,199,195.38a43.22,43.22,0,0,0-.84-7.21,1.6,1.6,0,0,0,0-.21.36.36,0,0,0,0-.1.43.43,0,0,0,0-.05l1,2.14,1.92,4.76c2.23,18.48-2.37,46.33-2.37,46.33,6.7-8.34,8.09-26.78,7.8-31.26-.13-2.14-.3-4.78-.41-6.94-.15-2.36-.25-4.15-.25-4.15l13.71,8.18-2.53-8,10,8s9,10.8,18.19,12.06,43.07.51,43.07.51-29.43,1.89-38,4.42S240,229.29,240,229.29c6.21,31.59,40.58,42.24,41.65,42.56-31.18-4.68-45.69-31.19-45.69-31.19s-.51,14.91,1.89,20.59,16.55,19.58,34.74,22.48a41.89,41.89,0,0,0,4.53.46c15.34.72,28-7.12,29.34-8l.11-.07,0,0c-.49.75-6.78,9.59-32.18,10.56-1.54.06-3,.05-4.5,0h0c-23.54-1-35.53-16.67-35.53-16.67s-8.71,4.68-3.15,11.62l.18.22c1.64,1.89,5.25,4.2,9.52,6.58l.35.2c5.16,2.85,11.21,5.79,15.89,8.22l.07,0a59.23,59.23,0,0,1,6.52,3.73h0c1.32,1,1.59,1.58.3,1.73-6.57.76-31.45-4.67-32.46-3.16s1.23,5.43,1.23,5.43c22.84,11.32,71.71,5.74,73.25,5.57-40.9,10.47-74.36-2.79-74.36-2.79l1.11,3.92a146.33,146.33,0,0,0,39.69,6.82c21.48.5,34.87-5,34.87-5Z" transform="translate(-40.5 -32.6)"/><path class="cls-31" d="M292.88,219.31s16.27.89,27,3.73l-5.54,8.41A73.74,73.74,0,0,0,292.88,219.31Z" transform="translate(-40.5 -32.6)"/><path class="cls-32" d="M308.08,264.15s-10.14,8.47-20.12,12.38a67.34,67.34,0,0,1-19.58,4.3s5.74,1.7,19.85-.57,18.95-9.92,18.95-9.92Z" transform="translate(-40.5 -32.6)"/><path class="cls-33" d="M312.64,296.76h0c-18.78,4.85-42.62-2.11-42.42-3s6.53.38,21.21-2.56c14.23-2.85,19.39-7.91,19.7-8.22-.12.86-2.08,2.75-2.64,4.81C308.11,289.21,310.77,293.53,312.64,296.76Z" transform="translate(-40.5 -32.6)"/><path class="cls-34" d="M261.63,221.86c-16,1.63-20.36,6.1-20.36,6.1-4.51.57-14.64-11-14.64-11l-1.32-1.52s-8.15,18.57-15.54,27.66c-.88,1.08-1.81,2.15-2.77,3.18l1.05-2.36s1.72-.82,2.22-9.85-3.79-22.48-3.82-24.31-.66-11.09-.66-11.09l13.71,8.18-2.53-8,10,8s3.91,5.88,13.78,10.78C250,222.28,260.48,221.91,261.63,221.86Z" transform="translate(-40.5 -32.6)"/><path class="cls-35" d="M225.31,215.46l9.55-1.25a72.35,72.35,0,0,0,11.49,5.65L240,229.29s2.53,13.44,9.81,21c0,0-19.32-10.73-22-19.75Z" transform="translate(-40.5 -32.6)"/><path class="cls-36" d="M169.52,186.86l2.73,7.19s2.78,9.7,8.31,10.11,10.93-16.27,10.93-16.27v-11s-5.88,12.6-12.23,14S169.52,186.86,169.52,186.86Z" transform="translate(-40.5 -32.6)"/><path class="cls-37" d="M202.57,181.17s4.92,9.85,11,12.88c0,0-7.21-17.5-5.69-27.79C207.87,166.26,205.22,167.91,202.57,181.17Z" transform="translate(-40.5 -32.6)"/><path class="cls-38" d="M322.32,195.76l1.7,5.49,1.72,45.05a109.09,109.09,0,0,1-7.43-20.81L319.9,223S322.57,206.06,322.32,195.76Z" transform="translate(-40.5 -32.6)"/><path class="cls-39" d="M374.67,209s-1,22.13,8.44,24l.47,2.37S371.41,235,374.67,209Z" transform="translate(-40.5 -32.6)"/><path class="cls-17" d="M359,215.75s-.36.79-3.78-1.69c0,0-11.83,8.38-16.39,20.19,0,0,7.29-10.85,11.17-12s4.82,3.16,4.82,3.16S356.33,219.28,359,215.75Z" transform="translate(-40.5 -32.6)"/><path class="cls-40" d="M168.27,198.41s4.55,8.39,13.08,5.76c0,0-5.11,3.44-10.23.64C171.12,204.81,167.94,199.36,168.27,198.41Z" transform="translate(-40.5 -32.6)"/><path class="cls-41" d="M198.08,187.79s6.26,23.4-10.07,41a27.14,27.14,0,0,0,13-18.05A38.75,38.75,0,0,0,198.08,187.79Z" transform="translate(-40.5 -32.6)"/><path class="cls-42" d="M310.22,169.09s-.71,10.56-5.77,18.14-15.1,12.69-15.1,12.69,12.6-4.64,18.38-11.18S310.22,169.09,310.22,169.09Z" transform="translate(-40.5 -32.6)"/><path class="cls-43" d="M245.77,153.19A66.87,66.87,0,0,0,248.61,171c2.84,9,27.51,24.72,27.51,24.72s-25.43-10.56-30.35-20.06S245.77,153.19,245.77,153.19Z" transform="translate(-40.5 -32.6)"/><path class="cls-17" d="M245.48,195.25v14.39s33.11-.27,70.24,2.19l.84-13A649.19,649.19,0,0,0,245.48,195.25Z" transform="translate(-40.5 -32.6)"/><path class="cls-44" d="M297.87,155.11c-.78,9.3-3.61,15.78-6.63,20.15-4.16,6-8.66,8.05-8.66,8.05a52,52,0,0,1-11.76-7.09,60,60,0,0,1-19.21-28.5c6,14.54,14.86,23.35,21.56,28.31a43.28,43.28,0,0,0,9.41,5.52V176.9a30.9,30.9,0,0,1-3.1-1.36c-11.8-5.95-18-18.35-20.9-26.37l0,0a57,57,0,0,1-2.18-7.39h2.14l-.7,1.5,0,.05c.34,1.52.73,3,1.17,4.37a.36.36,0,0,0,0,.11c6.6,20.82,23.58,27.53,23.58,27.53,11.8-8.71,11.57-22.54,11.57-22.54v-1.9l2.21.66Z" transform="translate(-40.5 -32.6)"/><path class="cls-45" d="M367.87,205.65s-3.21,10.47-.18,26.77c0,0,1.52-20.66,2.66-22.46s4.32-.94,4.32-.94A72.14,72.14,0,0,0,367.87,205.65Z" transform="translate(-40.5 -32.6)"/><path class="cls-46" d="M336.75,262.62c-2.8-2.45-6.16-6.54-9.51-13.24-6.7-13.39-8.62-22.33-8.93-23.89L319.9,223l2.13-20.6,2-1.19a84.28,84.28,0,0,0,12.51-19.7,5.61,5.61,0,0,1,.27.86h0c1.09,4.28,3.33,20.31,5.41,26a13.1,13.1,0,0,0,4.86,6.56s-12.31,18.26-12.91,31.29C333.63,258.16,336.27,262,336.75,262.62Z" transform="translate(-40.5 -32.6)"/><path class="cls-47" d="M263.66,300.7s-22.19-3.64-31.25-9.48a0,0,0,0,1,0,0,6.76,6.76,0,0,0,.11-1.48c-.19-5-4.51-9.43-5.11-12.27.1.27.75,1.77,3.9,4.47a66.94,66.94,0,0,0,9.52,6.58l.35.2c6.4,3.78,11.91,6.34,15.89,8.22l.07,0c3.58,1.68,5.9,2.79,6.52,3.73Z" transform="translate(-40.5 -32.6)"/><path class="cls-48" d="M311.13,283c-.12.86-2.08,2.75-2.64,4.81,0,0-8.14,8.62-38.27,6,.2-.85,6.53.38,21.21-2.56C305.66,288.4,310.82,283.34,311.13,283Z" transform="translate(-40.5 -32.6)"/><path class="cls-49" d="M316.14,166.4l-19.26,6.24-5.64,2.62h-8.66l-3.1.25-1.64.12-4.67.37-2.35.19-23.1-8.36-4.13-1.49-19-6.88,1.73-.68c12.75-5.05,25.26-11.18,25.26-11.18l4.8-5.9h2.14a71.16,71.16,0,0,0,4-11.17l1.27-5.71c.09-.55.13-.85.13-.85l6.8,3.59,22.93,18.34c0,1.25,0,2.37.09,3.32l.33,2.31c.06-.45.08-.71.08-.71l2.21.66,1.51,3.6s2.56,4,12.7,8.44A60.32,60.32,0,0,1,316.14,166.4Z" transform="translate(-40.5 -32.6)"/><path class="cls-50" d="M301.47,148.83a31.37,31.37,0,0,1-18.89-2.78c-9.91-4.8-18.24-19-18.75-22.48s3.79-12.76,3.79-20S264.09,84,270,77.33s33.22-7.7,42.07.89c0,0,2.74,6.88,2.74,10.77a28.33,28.33,0,0,1-.42,3.91c-.08.59-.19,1.22-.29,1.87-.79,4.71-1.88,10.46-1.37,13a12.64,12.64,0,0,0,.79,2.46h0c1.09,2.52,2.71,4.53,3,6.71C316.92,119.78,313.1,140,301.47,148.83Z" transform="translate(-40.5 -32.6)"/><path class="cls-51" d="M267.55,101.58s-2.46-6.15-8.61-6.25c0,0-3.6,1.42-4.17,4.17,0,0,1.32,10,2.84,14.59s7.07,4,7.07,4A23.57,23.57,0,0,0,267.55,101.58Z" transform="translate(-40.5 -32.6)"/><path class="cls-52" d="M291.21,121.83a5.65,5.65,0,0,1,2.94.5c.88.67,4.1,3.79,8.18,4.65s6.8-2.62,7.67-2.8,1.82,1,1.82,1a3.39,3.39,0,0,0-2.49-2.06s-.86,3.27-6.77,2.15-8.41-3.74-8.41-3.74l-.3-.54A15.2,15.2,0,0,0,291.21,121.83Z" transform="translate(-40.5 -32.6)"/><path class="cls-53" d="M282.5,91.24l.08-.63S288.47,80.27,300.12,80s14.29,7,14.29,7l2.15-3.27-4.91-10-34.24-.57-8.34,6.73L268,96.36l3.71,21.74,9,4.8,2.55-2.26c-.94-7.28-6.35-13.93-6.35-13.93l3.94-2.74s10.14,4.91,16,3.44c0,0,4.4-12.86,4.15-22.38C301,85,286,87.25,282.5,91.24Z" transform="translate(-40.5 -32.6)"/><path d="M282,92s.57-3.72,6.85-5.21c7-1.66,12.69-3.06,12.69-3.06s-1.24,4.08-3.58,5.61c0,0-7.4-.27-11.15.58S282,92,282,92Z" transform="translate(-40.5 -32.6)"/><path d="M314.41,87s-3.56,2.74-6,9.28c0,0,2.32-3,4.45-3a1.22,1.22,0,0,1,1.23,1.47A13.69,13.69,0,0,0,314.41,87Z" transform="translate(-40.5 -32.6)"/><path class="cls-54" d="M284.33,102.53s.37-7.86,8.05-9.85a16,16,0,0,1,3,7.58S291.34,99.5,284.33,102.53Z" transform="translate(-40.5 -32.6)"/><path class="cls-55" d="M306.3,105.66s.63-6.26,4.22-8.57c0,0,2.45,1.83,2.2,7.07C312.72,104.16,310.57,103.39,306.3,105.66Z" transform="translate(-40.5 -32.6)"/><path class="cls-56" d="M284.33,102.53s2.49,3.07,9.47,3.67a10.93,10.93,0,0,0,1.2-6S288.59,99.6,284.33,102.53Z" transform="translate(-40.5 -32.6)"/><path class="cls-56" d="M306.3,105.66v.92s1.08,2.24,4.93,2.62a10.83,10.83,0,0,0,1.35-5.08S310.13,103.51,306.3,105.66Z" transform="translate(-40.5 -32.6)"/><path class="cls-57" d="M291.79,100.05a8.64,8.64,0,0,0-1.61,5.55,27.25,27.25,0,0,0,3.62.6,9.41,9.41,0,0,0,1.2-6A9.5,9.5,0,0,0,291.79,100.05Z" transform="translate(-40.5 -32.6)"/><path class="cls-57" d="M310,104.23s-1,1.07-1.19,4.37a7.52,7.52,0,0,0,2.46.6,9.23,9.23,0,0,0,1.35-5.08A4.44,4.44,0,0,0,310,104.23Z" transform="translate(-40.5 -32.6)"/><path class="cls-13" d="M291.21,105.83s-.63-4.25,1.8-5.87l2,.25a8.59,8.59,0,0,1-1.2,6S291.82,106,291.21,105.83Z" transform="translate(-40.5 -32.6)"/><path class="cls-13" d="M310.84,104a18.29,18.29,0,0,0-1.32,4.83,5.37,5.37,0,0,0,1.71.33,8.36,8.36,0,0,0,1.35-5.08A4.2,4.2,0,0,0,310.84,104Z" transform="translate(-40.5 -32.6)"/><path class="cls-58" d="M284.33,102.53s4.64-2.7,12.55-1.16l-1.47-1.11A13.24,13.24,0,0,0,284.33,102.53Z" transform="translate(-40.5 -32.6)"/><path class="cls-58" d="M306.3,105.66a12.53,12.53,0,0,1,8.07-.93l-1.79-1.33S309.67,103,306.3,105.66Z" transform="translate(-40.5 -32.6)"/><path class="cls-12" d="M289.35,102.53a2.78,2.78,0,0,1,2.4.87A2.18,2.18,0,0,1,289.35,102.53Z" transform="translate(-40.5 -32.6)"/><path class="cls-12" d="M308,106.2s2-.39,2.66.51C310.67,106.71,309.61,107.44,308,106.2Z" transform="translate(-40.5 -32.6)"/><path class="cls-59" d="M284.79,103a18.19,18.19,0,0,0,9.39,4.42l.15-2.1-.53.89S288.24,105.87,284.79,103Z" transform="translate(-40.5 -32.6)"/><path class="cls-59" d="M306.3,106.58s.65,2.3,5.35,3.34l-.15-1.13-.27.41S307.89,108.77,306.3,106.58Z" transform="translate(-40.5 -32.6)"/><path class="cls-60" d="M296.88,115.8a16.67,16.67,0,0,1,5,0c3.22.38,6.85,1.26,8.82,0,0,0-2.63,2.63-4.9,3s-5.75-1.6-5.75-1.6l-1.52,0A4.13,4.13,0,0,1,296.88,115.8Z" transform="translate(-40.5 -32.6)"/><path class="cls-61" d="M298.73,117.25a2.39,2.39,0,0,1,1.45-.38c.66.13,1.34,1.09,1.34,1.09A6.61,6.61,0,0,0,298.73,117.25Z" transform="translate(-40.5 -32.6)"/><path class="cls-62" d="M310.67,115.8c.85-.82-3.51-8.59-5.6-8.87s-4,8.7-4,8.7l5.71.78C309.55,116.79,310.67,115.8,310.67,115.8Z" transform="translate(-40.5 -32.6)"/><path class="cls-63" d="M313.79,91.36c-1.18-.15-5.35,4.92-5.35,4.92s-2.65,8.21-2.13,10.64,7,3.73,7,3.73l.27-.43h0a12.64,12.64,0,0,1-.79-2.46c-.51-2.52.58-8.27,1.37-13a9.67,9.67,0,0,0,.29-1.87C314.44,92.14,314.33,91.42,313.79,91.36Z" transform="translate(-40.5 -32.6)"/><path class="cls-64" d="M313.6,124.7c-1.33-2.78-.51-4.23-12.06-5.74-16.35-2.15-17.75,2.84-20.53,2.08l-.33-.12c-3-1.17-10.1-8.14-10.28-17.53-.19-9.76,6.35-16.68,6.35-16.68-2.37-2-3.32-7.76-.76-10.23s6.92-1.89,17.62-.76,10.71.48,10.71.48c3.4.87,5.35,4.06,5.9,5.08.11.2.16.32.16.32l1.33-1.23a17.42,17.42,0,0,1,2.94,10.89s5.87-11.94,5.2-13.63a45.38,45.38,0,0,0-4.82-8h0s-.95-9.09-3.79-9.09-15,2.74-15,2.74a17.22,17.22,0,0,0,1.14-6.72l0,0c-4,3.55-7.83,3.94-13.31,6.48a13.87,13.87,0,0,0-5.13,3.72l-.37.44-.39.47c-.38.48-.77,1-1.24,1.47l-.06.06,0,0a15.68,15.68,0,0,1-1.59,1.49c-3.6,2.93-11.52,4.89-12.47,8s1.2,7.32,2.34,11.68a23.73,23.73,0,0,1,.61,8.21,16.13,16.13,0,0,1,2.52,12c-1.11,6.37-3.54,7.41-3.54,7.41a10.91,10.91,0,0,0-.9,6.79c3.5,13.92,18,22.21,18,22.21,12.88,4.8,21.35,2.71,21.35,2.71h0c9.37-6.11,12.58-26.33,12.72-27.27C315.69,122.74,314,125.44,313.6,124.7Zm-5.78,12.89c-2.27-.38-2.75-6.13-3.5-6.89s-4.87-.44-4.87-.44-3.79,4.3-5.3,4.42-9.6-3.16-7.85-8.08,7.85-5.56,7.85-5.56a14.8,14.8,0,0,0,7.89,3c4.74.31,6.45-.56,7-.81s3.62,1.13,3.54,5.43C312.54,131.61,310.1,138,307.82,137.59Z" transform="translate(-40.5 -32.6)"/><path class="cls-65" d="M307.23,108.65s4.08,5.07,3.69,7c-.42,2.08-5.15,3.2-5.15,3.2s3.79-1.31,4.57-3.2A25.4,25.4,0,0,0,307.23,108.65Z" transform="translate(-40.5 -32.6)"/><path class="cls-66" d="M314.65,91.26a17.42,17.42,0,0,0-2.94-10.89A29.09,29.09,0,0,0,315,69.66h0a36.71,36.71,0,0,1,1.54,7.1l3.28.86C320.52,79.32,314.65,91.26,314.65,91.26Z" transform="translate(-40.5 -32.6)"/><path class="cls-67" d="M310.22,81.28c-.55-1-2.5-4.21-5.9-5.08,0,0,0,.66-10.71-.48S278.55,74,276,76.48s-1.61,8.24.76,10.23c0,0-6.54,6.92-6.35,16.68.18,9.39,7.27,16.36,10.28,17.53l-.14,1s.53,21.5,5.76,23.21,16.06.82,17.07,1.83-.14,2.61-.24,2.76h0s-8.47,2.09-21.35-2.71c0,0-14.48-8.29-18-22.21a10.91,10.91,0,0,1,.9-6.79s2.43-1,3.54-7.41a16.13,16.13,0,0,0-2.52-12,23.73,23.73,0,0,0-.61-8.21c-1.14-4.36-3.29-8.59-2.34-11.68a13.64,13.64,0,0,0,10-2.21s1.06-1.47,5.75-2.23,23.54,1.14,23.54,1.14a16.2,16.2,0,0,0-5.87-2.61c-3.76-1-16.6.16-18,.27,1.47-.26,16-2.76,17.69-2.26S304,74.3,304,74.3c-.57-2.89-6.21-9.85-6.21-9.85a88.48,88.48,0,0,0-13.17,1.23,17,17,0,0,0-7.7,3.54l1.24-1.47.39-.47.37-.44,1.82-.31,9.14-3.69c3.07-1.64,7-5.7,7.48-6.2l0,0a17.22,17.22,0,0,1-1.14,6.72c7.72-1,10.33-.47,10.33-.47C310.1,67.81,310.22,81.28,310.22,81.28Z" transform="translate(-40.5 -32.6)"/><path class="cls-68" d="M281.77,147.06a48.4,48.4,0,0,1,11.87-.84c7.15.29,11.25.32,9.48,3.55C303.12,149.77,294.15,151.79,281.77,147.06Z" transform="translate(-40.5 -32.6)"/><path class="cls-69" d="M306.59,62.84s4.34-1.7,6.05-1.42a3.3,3.3,0,0,0-1.39-1.09c-.71-.19-15,3-15,3S305.17,62.27,306.59,62.84Z" transform="translate(-40.5 -32.6)"/><path class="cls-70" d="M297.78,64.45s-.34,4.73-1.85,6.44l-17.69,2.26-5.19-.92a13,13,0,0,0,4.21-3.43C279.47,66.22,291,63.69,297.78,64.45Z" transform="translate(-40.5 -32.6)"/><path class="cls-71" d="M315,69.66a39.82,39.82,0,0,1,1.55,7.11l3.28.86A23.67,23.67,0,0,0,315,69.66Z" transform="translate(-40.5 -32.6)"/><path class="cls-72" d="M266.82,109.92s-1.25-6-4.3-8.92A7.16,7.16,0,0,0,256,99s.95,11.06,1.94,13.76,2.51,3.42,2.51,3.42a8.52,8.52,0,0,1-2.41-5.53c-.29-3.66-.38-8.83.42-9.44s4.06,1.78,4.06,1.78a10.75,10.75,0,0,0-1.64,4.52c-.62,3.27,1.66,5.63,2.51,5.59s-.05-3.78.09-4.85S265.52,107.41,266.82,109.92Z" transform="translate(-40.5 -32.6)"/><path class="cls-73" d="M263.77,102.5a7.46,7.46,0,0,0-3,6.68c.36,4.48,2.93,4.29,2.94,3.35s-.49-3.37-.23-4.74S266,107,266,107A33.56,33.56,0,0,0,263.77,102.5Z" transform="translate(-40.5 -32.6)"/><path class="cls-13" d="M315.85,122.49s-4.14,18.87-12.73,27.28C303.12,149.77,312.92,145.92,315.85,122.49Z" transform="translate(-40.5 -32.6)"/><path class="cls-13" d="M311.25,60.33s2.19,1.69,2.6,7.59-2.14,12.45-2.14,12.45A23.64,23.64,0,0,0,315.3,70.1C315.62,64.73,313,61,311.25,60.33Z" transform="translate(-40.5 -32.6)"/><path d="M284.82,72.68a51.22,51.22,0,0,0,10.59,2.21l6.68.6s-2.23-2.16-7-2.81A48.08,48.08,0,0,0,284.82,72.68Z" transform="translate(-40.5 -32.6)"/><path d="M309.22,122.9s2.42,0,3.37,3a25.24,25.24,0,0,1,1,4.5l.85-3.32s-1.11-4.21-2.27-5.16c-.84-.68-2.28-1.37-3-1.2Z" transform="translate(-40.5 -32.6)"/><path d="M302.71,119.87l.41,3.6a12.75,12.75,0,0,0,4.89-.57l.35-2.18A27.73,27.73,0,0,0,302.71,119.87Z" transform="translate(-40.5 -32.6)"/><path class="cls-74" d="M316.14,166.4S333.36,179,335.6,183.31s3.14,17.9,6.17,23.77c0,0-2.07-9.6-3.52-17.14s-1.1-7.64-1.91-9.49S322.67,169.68,316.14,166.4Z" transform="translate(-40.5 -32.6)"/><path class="cls-74" d="M313.05,236.44s-8.3,35.54-7.92,37.95,5.75,7.29,6,8.64c0,0-4.11,5.5-3.92,6.72s7.2,8.92,7,11.3c-.05.7-4.6,8.2-4.6,8.2s5.14-7.38,5.39-8.55-6.3-11-6.49-12c-.5-2.59,3.27-4.49,3.4-6.2s-5.1-5.87-5.14-8.65S313.05,236.44,313.05,236.44Z" transform="translate(-40.5 -32.6)"/><path class="cls-74" d="M314.74,321.17s17.95,40.63,24.07,81.27C338.81,402.44,337.79,362.78,314.74,321.17Z" transform="translate(-40.5 -32.6)"/><path class="cls-62" d="M200.93,158.24s-4.65-1-6.57-5.05-.67-9.91-.67-9.91a103.63,103.63,0,0,0,5.45,9.36C201,155,201.43,157.73,200.93,158.24Z" transform="translate(-40.5 -32.6)"/><path class="cls-75" d="M219.18,128H122.49a7.93,7.93,0,0,1-7.92-7.74L112.77,41a7.92,7.92,0,0,1,7.92-8.1H221.36A7.92,7.92,0,0,1,229.27,41l-2.17,79.3A7.93,7.93,0,0,1,219.18,128Z" transform="translate(-40.5 -32.6)"/><path class="cls-76" d="M219.18,128.25H122.49a8.24,8.24,0,0,1-8.17-8L112.52,41a8.16,8.16,0,0,1,8.17-8.36H221.36A8.16,8.16,0,0,1,229.52,41l-2.17,79.31A8.13,8.13,0,0,1,219.18,128.25ZM120.69,33.1A7.67,7.67,0,0,0,113,41l1.8,79.3a7.73,7.73,0,0,0,7.67,7.5h96.69a7.64,7.64,0,0,0,7.67-7.46L229,41a7.67,7.67,0,0,0-7.66-7.88Z" transform="translate(-40.5 -32.6)"/><rect class="cls-12" x="98.33" y="16.47" width="50.85" height="2.18"/><rect class="cls-12" x="98.33" y="21.77" width="25.42" height="2.18"/><rect class="cls-12" x="98.33" y="26.19" width="25.42" height="2.18"/><rect class="cls-12" x="126.61" y="26.19" width="20.23" height="2.18"/><rect class="cls-12" x="98.33" y="30.61" width="40.99" height="2.18"/><rect class="cls-12" x="98.33" y="35.03" width="14.59" height="2.18"/><rect class="cls-12" x="115.92" y="48.29" width="25.23" height="2.18"/><rect class="cls-12" x="98.33" y="39.45" width="45.73" height="2.18"/><rect class="cls-12" x="98.33" y="43.87" width="35.18" height="2.18"/><rect class="cls-12" x="98.33" y="48.29" width="16.55" height="2.18"/><rect class="cls-12" x="98.33" y="52.71" width="25.42" height="2.18"/><rect class="cls-12" x="98.33" y="57.14" width="7.29" height="2.18"/><rect class="cls-12" x="108.63" y="57.14" width="26.46" height="2.18"/><rect class="cls-12" x="115.92" y="61.43" width="25.23" height="2.18"/><rect class="cls-12" x="98.33" y="61.43" width="16.55" height="2.18"/><rect class="cls-12" x="98.33" y="65.85" width="25.42" height="2.18"/><rect class="cls-12" x="98.33" y="70.27" width="7.29" height="2.18"/><rect class="cls-12" x="108.63" y="70.27" width="26.46" height="2.18"/><path class="cls-77" d="M448.3,155.07H399.5a7.29,7.29,0,0,1-7.28-7l-1.08-32.1a7.29,7.29,0,0,1,7.28-7.53h50.86a7.28,7.28,0,0,1,7.28,7.51l-1,32.1A7.29,7.29,0,0,1,448.3,155.07Z" transform="translate(-40.5 -32.6)"/><path class="cls-78" d="M448.3,155.32H399.5A7.51,7.51,0,0,1,392,148l-1.08-32.1a7.53,7.53,0,0,1,7.53-7.79h50.86a7.53,7.53,0,0,1,7.53,7.77l-1,32.09A7.5,7.5,0,0,1,448.3,155.32Zm-49.88-46.67a7,7,0,0,0-7,7.27l1.08,32.1a7,7,0,0,0,7,6.8h48.8a7,7,0,0,0,7-6.82l1-32.1a7,7,0,0,0-7-7.25Z" transform="translate(-40.5 -32.6)"/><polygon class="cls-12" points="372.01 87.33 359.98 101.28 372.23 111.68 372.23 106.31 365.14 100.17 371.73 92.73 372.01 87.33"/><polygon class="cls-12" points="393.16 87.96 405.19 101.91 392.94 112.31 392.94 106.94 400.03 100.8 392.14 92.45 393.16 87.96"/><polygon class="cls-12" points="374.63 111.68 385.12 88.58 390.04 88.58 378.17 111.68 374.63 111.68"/><path class="cls-79" d="M381.16,288.85l-2.91,8.35C379.86,292.59,382.18,289.59,381.16,288.85Zm-2.91,8.35-2.93,8.35C376.06,305.33,376.63,301.81,378.25,297.2Zm2.91-8.35-2.91,8.35C379.86,292.59,382.18,289.59,381.16,288.85Zm-2.91,8.35-2.93,8.35C376.06,305.33,376.63,301.81,378.25,297.2Zm8.42,7.23L389.5,306l3.06-8.35-3.27-.55c0-.31.11-.62.15-.93a21.29,21.29,0,0,0,.28-4.16l3.43-2.15-1.56-7.36-3.29,3.15a9.31,9.31,0,0,0-1.68-2.45,6,6,0,0,0-.57-.56l2-4.64-5.35-1.74h0L381.43,281a8.88,8.88,0,0,0-3.62.84l-.59-4.42-5.89,4.46,1.36,3.92a22.31,22.31,0,0,0-2.87,4.18l-2.84-1.6-3.06,8.35,3.28.55a22.54,22.54,0,0,0-.43,5.09l-3.43,2.15,1.56,7.36,3.29-3.14a9.13,9.13,0,0,0,2.25,3l-2,4.65,5.27,2.05.81-3,.56-2a9,9,0,0,0,3.63-.84l.58,4.42,5.89-4.46-1.36-3.92a21.67,21.67,0,0,0,2.31-3.2C386.31,305.1,386.49,304.77,386.67,304.43Zm-8.42-7.23c-1.62,4.61,0,9.37-2.93,8.35s-4-5.6-2.38-10.2,5.3-7.52,8.22-6.5S379.86,292.59,378.25,297.2Zm2.91-8.35-2.91,8.35C379.86,292.59,382.18,289.59,381.16,288.85Zm-2.91,8.35-2.93,8.35C376.06,305.33,376.63,301.81,378.25,297.2Z" transform="translate(-40.5 -32.6)"/><path class="cls-80" d="M389.5,306l3.06-8.35-3.12-1.48-.5-.23.33-4.6,3.46-1.69-1.14-7.15L384,280.09l1.39,3.31,2.63-5.36-5.35-1.74-2.19-.72-5.28-2.05-1,3.6L369.67,275l-5.88,4.45,1.78,4.82-5.5,15.27-2.72,9.91,5.22.57-1.7,3.93,5.27,2.06,7.55,2.45L372.48,316l-.77-1.45,2.79.91,4.77,1.55,5.89-4.46-3.65-4.29,4.6-2.83Zm-16.56-10.69c1.62-4.62,5.3-7.52,8.22-6.5l-2.91,8.35-2.93,8.35C372.39,304.52,371.32,300,372.94,295.35Z" transform="translate(-40.5 -32.6)"/><path class="cls-81" d="M382,303.58l3.06-8.35-3.28-.55a23.1,23.1,0,0,0,.43-5.08l3.43-2.16L384,280.09l-3.29,3.14a8.94,8.94,0,0,0-2.25-3l2-4.65-5.27-2.05-1.37,5a8.92,8.92,0,0,0-3.62.84l-.59-4.41-5.88,4.45,1.35,3.92a22.31,22.31,0,0,0-2.87,4.18l-2.84-1.6-3.06,8.36,3.28.54a23.14,23.14,0,0,0-.43,5.09L355.79,302l1.56,7.36,3.29-3.14a9.28,9.28,0,0,0,2.25,3l-2,4.64,5.27,2.05,1.36-5a9,9,0,0,0,3.62-.85l.59,4.42,5.89-4.46-1.36-3.91a22.39,22.39,0,0,0,2.87-4.19Zm-14.19-.49c-2.93-1-4-5.6-2.38-10.21s5.3-7.51,8.23-6.48,4,5.59,2.38,10.2S370.7,304.11,367.77,303.09Z" transform="translate(-40.5 -32.6)"/><polygon class="cls-82" points="352.65 257.3 345.11 254.84 341.68 256.99 349.22 259.45 352.65 257.3"/><polygon class="cls-83" points="344.66 279.94 337.11 277.48 335.75 273.56 343.3 276.02 344.66 279.94"/><polygon class="cls-82" points="338 247.62 342.14 248.82 343.54 247.48 346.29 248.38 347.56 245.44 340.02 242.98 338 247.62"/><path class="cls-82" d="M367.51,311l3.95,1.64-.33-2.49A7.14,7.14,0,0,1,367.51,311Z" transform="translate(-40.5 -32.6)"/><path class="cls-82" d="M368.12,288.34l6.65,3.52a10.44,10.44,0,0,1,1.72-1.81S374.75,282.71,368.12,288.34Z" transform="translate(-40.5 -32.6)"/><polygon class="cls-84" points="130.85 271.79 137.27 284.64 132.98 286.59 126.98 274.78 130.85 271.79"/><polygon class="cls-85" points="30.42 306.14 36.35 312.65 38.69 309.97 33.08 303.8 30.42 306.14"/><polygon class="cls-86" points="332.19 85.2 326.21 88.83 323.82 84.29 330.36 80.47 332.19 85.2"/><polygon class="cls-86" points="361.64 314.92 353.07 321.01 350.67 316.46 358.99 311.6 361.64 314.92"/><polygon class="cls-87" points="350.32 54.13 348.87 20.48 392.94 20.48 391.13 54.04 350.32 54.13"/><polygon class="cls-88" points="348.87 20.48 347.55 22.46 348.87 54.13 350.32 54.13 348.87 20.48"/><polygon class="cls-12" points="363.5 27.2 356.59 26.45 357.53 49.52 363.5 48.93 363.5 46.55 360.04 46.63 359.65 28.84 363.5 28.95 363.5 27.2"/><polygon class="cls-12" points="377.67 27.2 384.58 26.45 383.63 49.52 377.67 48.93 377.67 46.55 381.12 46.63 381.52 28.84 377.67 28.95 377.67 27.2"/><polygon class="cls-89" points="29.06 118.9 30.04 95.95 0 95.95 1.24 118.83 29.06 118.9"/><polygon class="cls-90" points="30.04 95.95 30.94 97.31 30.04 118.9 29.06 118.9 30.04 95.95"/><path class="cls-12" d="M59,133.17a20.7,20.7,0,0,1,3.87.14c.59.27-.15,5.64-.15,5.64l1.32,1.2-1.23,1.19s.06,5.44-.71,5.9-3.42,0-3.42,0v-1.36a7.88,7.88,0,0,0,2.52-.15c.35-.3.32-5,.32-5l.58-.63-.58-.69s.11-3.39,0-4.32c0-.62-2.56-.65-2.56-.65Z" transform="translate(-40.5 -32.6)"/><path class="cls-12" d="M51.42,133.17a20.7,20.7,0,0,0-3.87.14c-.58.27.15,5.64.15,5.64l-1.31,1.2,1.22,1.19s-.06,5.44.71,5.9,3.43,0,3.43,0v-1.36a7.86,7.86,0,0,1-2.52-.15c-.36-.3-.33-5-.33-5l-.58-.63.58-.69s-.1-3.39,0-4.32c0-.62,2.56-.65,2.56-.65Z" transform="translate(-40.5 -32.6)"/><path class="cls-91" d="M340.44,89.77,333.07,70.5l19.1,4Zm-6.57-18.59,6.72,17.58,10.7-13.94Z" transform="translate(-40.5 -32.6)"/><rect class="cls-91" x="390.77" y="358.15" width="10.94" height="0.5" transform="translate(-167.58 433.49) rotate(-53.76)"/><polygon class="cls-91" points="291.99 249 285.05 240.35 285.44 240.04 292.38 248.68 291.99 249"/><polygon class="cls-91" points="77.67 309.72 63.8 299.66 64.09 299.25 77.96 309.31 77.67 309.72"/><rect class="cls-91" x="102.81" y="336.84" width="17.13" height="0.5" transform="translate(-264.76 188.82) rotate(-52.7)"/><rect class="cls-91" x="91.17" y="187.16" width="0.5" height="10.14" transform="translate(-161.77 151.14) rotate(-62.28)"/><polygon class="cls-91" points="400.13 41.21 399.75 40.88 410.13 29.05 410.5 29.38 400.13 41.21"/><rect class="cls-91" x="241.01" y="101.99" width="0.5" height="10.41" transform="translate(-62.99 86.07) rotate(-26.45)"/><rect class="cls-91" x="163.71" y="264.17" width="15.54" height="0.5" transform="translate(-170.21 139.03) rotate(-39.91)"/><path class="cls-17" d="M353.64,232.11c.07,10.28,1.63-5.19,1.63-5.19l1.5,3.49.68,3.74-1.57,2-4.35,1.16-.14-2.12Z" transform="translate(-40.5 -32.6)"/></g><polyline class="cls-92" points="294.85 210.81 294.85 210.2 295.01 209.38 295.01 208.31 295.24 207.72 295.24 206.51 295.67 205.5 295.67 204.72 295.96 202.99 296.25 201.82 297.2 199.16 297.4 199.49"/></g></g></svg>