<svg id="logo-typescript" xmlns="http://www.w3.org/2000/svg" viewBox="0 0 283.09 69.56"><defs><style>.cls-1{fill:#007acc;}</style></defs><path class="cls-1" d="M35,7.56H20.43V52.63H14.52V7.56H0V2.21H35Z" transform="translate(0 -0.01)"/><path class="cls-1" d="M57.94,16.63,41.38,58.39Q37,69.57,28.93,69.57a13,13,0,0,1-3.76-.46V63.94a10.72,10.72,0,0,0,3.41.63q4.37,0,6.54-5.2L38,52.55,23.94,16.63h6.4l9.74,27.7c.12.35.36,1.27.74,2.74H41c.12-.56.35-1.45.7-2.67L52,16.63Z" transform="translate(0 -0.01)"/><path class="cls-1" d="M67.37,47.43h-.14V69.19H61.46V16.63h5.77V23h.14a13.64,13.64,0,0,1,12.45-7.17q7,0,10.86,4.83t3.9,13q0,9-4.39,14.47t-12,5.43A12.07,12.07,0,0,1,67.37,47.43Zm-.14-14.52v5a10.73,10.73,0,0,0,2.9,7.58,10.35,10.35,0,0,0,15.58-.9q3-4,3-11.14,0-6-2.78-9.42a9.2,9.2,0,0,0-7.52-3.41,10.24,10.24,0,0,0-8.09,3.5A12.78,12.78,0,0,0,67.23,32.91Z" transform="translate(0 -0.01)"/><path class="cls-1" d="M129.56,36.07H104.14q.14,6,3.23,9.28a11.15,11.15,0,0,0,8.51,3.27,17.72,17.72,0,0,0,11.18-4V50q-4.74,3.45-12.55,3.45-7.64,0-12-4.9t-4.36-13.8q0-8.4,4.76-13.69a15.27,15.27,0,0,1,11.83-5.29q7.06,0,10.93,4.57t3.87,12.69v3Zm-5.91-4.89c0-3.33-.83-5.92-2.41-7.77a8.21,8.21,0,0,0-6.59-2.78,9.31,9.31,0,0,0-6.93,2.92,13.28,13.28,0,0,0-3.52,7.63Z" transform="translate(0 -0.01)"/><path class="cls-1" d="M134.6,50.59v-7a12.35,12.35,0,0,0,2.62,1.9A19.78,19.78,0,0,0,140.44,47a25,25,0,0,0,3.39.9,17.52,17.52,0,0,0,3.15.32c3.32,0,5.81-.67,7.45-2a7.11,7.11,0,0,0,2.46-5.82,7.3,7.3,0,0,0-.82-3.55A9.78,9.78,0,0,0,153.8,34a22.63,22.63,0,0,0-3.43-2.39q-2-1.14-4.26-2.41t-4.5-2.71a19.48,19.48,0,0,1-3.63-3,12.68,12.68,0,0,1-2.43-3.74,12.5,12.5,0,0,1-.88-4.9,12.38,12.38,0,0,1,1.38-6,12.43,12.43,0,0,1,3.64-4.2,15.84,15.84,0,0,1,5.13-2.46,21.6,21.6,0,0,1,5.87-.81q6.83,0,9.94,1.79V9.82a16.91,16.91,0,0,0-10.49-3.09,16.42,16.42,0,0,0-3.54.4,9.46,9.46,0,0,0-3.15,1.32,7.26,7.26,0,0,0-2.25,2.36,6.68,6.68,0,0,0-.87,3.52,7.8,7.8,0,0,0,.66,3.34,8.12,8.12,0,0,0,1.95,2.57,19.58,19.58,0,0,0,3.14,2.25c1.23.73,2.65,1.52,4.26,2.39s3.22,1.83,4.7,2.81A21.24,21.24,0,0,1,158.93,31a14.66,14.66,0,0,1,2.65,4,12.11,12.11,0,0,1,1,5,13.75,13.75,0,0,1-1.33,6.31,11.66,11.66,0,0,1-3.6,4.2,14.93,14.93,0,0,1-5.23,2.34,26.28,26.28,0,0,1-6.24.72,22.88,22.88,0,0,1-2.7-.19c-1.07-.13-2.17-.32-3.28-.56a26.13,26.13,0,0,1-3.17-.91A10.72,10.72,0,0,1,134.6,50.59Z" transform="translate(0 -0.01)"/><path class="cls-1" d="M193.25,51a18.79,18.79,0,0,1-9.84,2.5,16.3,16.3,0,0,1-12.43-5q-4.72-5-4.73-13,0-8.89,5.1-14.29T185,15.79a19,19,0,0,1,8.37,1.76v5.91a14.62,14.62,0,0,0-8.58-2.81,11.57,11.57,0,0,0-9.05,4q-3.52,4-3.53,10.39t3.32,10a11.48,11.48,0,0,0,8.91,3.66,14.44,14.44,0,0,0,8.86-3.13V51Z" transform="translate(0 -0.01)"/><path class="cls-1" d="M215.56,22.46a7.08,7.08,0,0,0-4.36-1.16A7.36,7.36,0,0,0,205,24.78q-2.47,3.48-2.48,9.49V52.62h-5.77v-36h5.77V24h.14a12.5,12.5,0,0,1,3.76-5.92A8.57,8.57,0,0,1,212.11,16a9.42,9.42,0,0,1,3.45.49Z" transform="translate(0 -0.01)"/><path class="cls-1" d="M222.18,7.49a3.68,3.68,0,0,1-2.64-1,3.54,3.54,0,0,1-1.09-2.67,3.61,3.61,0,0,1,1.09-2.69A3.65,3.65,0,0,1,222.18,0a3.75,3.75,0,0,1,2.69,1.07A3.59,3.59,0,0,1,226,3.77a3.57,3.57,0,0,1-1.11,2.64A3.76,3.76,0,0,1,222.18,7.49ZM225,52.63h-5.77v-36H225Z" transform="translate(0 -0.01)"/><path class="cls-1" d="M234.29,47.43h-.14V69.19h-5.77V16.63h5.77V23h.14a13.64,13.64,0,0,1,12.45-7.17q7,0,10.86,4.83t3.9,13q0,9-4.39,14.47t-12,5.43A12.07,12.07,0,0,1,234.29,47.43Zm-.14-14.52v5a10.73,10.73,0,0,0,2.9,7.58,10.35,10.35,0,0,0,15.58-.9q3-4,3-11.14,0-6-2.78-9.42a9.2,9.2,0,0,0-7.52-3.41,10.24,10.24,0,0,0-8.09,3.5A12.78,12.78,0,0,0,234.15,32.91Z" transform="translate(0 -0.01)"/><path class="cls-1" d="M283.09,52.28a11.12,11.12,0,0,1-5.38,1.12q-9.45,0-9.46-10.55V21.55h-6.19V16.63h6.19V7.84L274,6V16.63h9.07v4.92H274V41.83c0,2.41.41,4.14,1.23,5.17a4.92,4.92,0,0,0,4.08,1.55,6,6,0,0,0,3.76-1.2Z" transform="translate(0 -0.01)"/></svg>